<mxfile host="app.diagrams.net" modified="2024-03-08T04:14:57.609Z" agent="Mozilla/5.0 (Windows NT 10.0; Win64; x64) AppleWebKit/537.36 (KHTML, like Gecko) Chrome/122.0.0.0 Safari/537.36 Edg/122.0.0.0" etag="HFo9m3iU2C9UHz_Z9UGU" version="24.0.2" type="github">
  <diagram name="Page-1" id="3_H8ivSbetBl72P3CNzi">
    <mxGraphModel dx="1426" dy="751" grid="1" gridSize="10" guides="1" tooltips="1" connect="1" arrows="1" fold="1" page="1" pageScale="1" pageWidth="850" pageHeight="1100" math="0" shadow="0">
      <root>
        <mxCell id="0" />
        <mxCell id="1" parent="0" />
        <mxCell id="ZFSDl9lkwHXLmLVonI5_-1" value="Actor" style="shape=umlActor;verticalLabelPosition=bottom;verticalAlign=top;html=1;" vertex="1" parent="1">
          <mxGeometry x="80" y="335" width="30" height="60" as="geometry" />
        </mxCell>
        <mxCell id="ZFSDl9lkwHXLmLVonI5_-5" value="Search" style="ellipse;whiteSpace=wrap;html=1;" vertex="1" parent="1">
          <mxGeometry x="340" y="90" width="140" height="70" as="geometry" />
        </mxCell>
        <mxCell id="ZFSDl9lkwHXLmLVonI5_-6" value="Payment" style="ellipse;whiteSpace=wrap;html=1;" vertex="1" parent="1">
          <mxGeometry x="340" y="450" width="140" height="70" as="geometry" />
        </mxCell>
        <mxCell id="ZFSDl9lkwHXLmLVonI5_-7" value="Book the Movie" style="ellipse;whiteSpace=wrap;html=1;" vertex="1" parent="1">
          <mxGeometry x="340" y="330" width="140" height="70" as="geometry" />
        </mxCell>
        <mxCell id="ZFSDl9lkwHXLmLVonI5_-8" value="Cancel" style="ellipse;whiteSpace=wrap;html=1;" vertex="1" parent="1">
          <mxGeometry x="340" y="580" width="140" height="70" as="geometry" />
        </mxCell>
        <mxCell id="ZFSDl9lkwHXLmLVonI5_-9" value="Time Slot&lt;span style=&quot;white-space: pre;&quot;&gt;&#x9;&lt;/span&gt;" style="ellipse;whiteSpace=wrap;html=1;" vertex="1" parent="1">
          <mxGeometry x="340" y="210" width="140" height="70" as="geometry" />
        </mxCell>
        <mxCell id="ZFSDl9lkwHXLmLVonI5_-10" style="edgeStyle=orthogonalEdgeStyle;rounded=0;orthogonalLoop=1;jettySize=auto;html=1;exitX=0.5;exitY=1;exitDx=0;exitDy=0;" edge="1" parent="1" source="ZFSDl9lkwHXLmLVonI5_-7" target="ZFSDl9lkwHXLmLVonI5_-7">
          <mxGeometry relative="1" as="geometry" />
        </mxCell>
        <mxCell id="ZFSDl9lkwHXLmLVonI5_-11" value="Login" style="ellipse;whiteSpace=wrap;html=1;" vertex="1" parent="1">
          <mxGeometry x="660" y="450" width="140" height="70" as="geometry" />
        </mxCell>
        <mxCell id="ZFSDl9lkwHXLmLVonI5_-12" value="Actor" style="shape=umlActor;verticalLabelPosition=bottom;verticalAlign=top;html=1;" vertex="1" parent="1">
          <mxGeometry x="930" y="335" width="30" height="60" as="geometry" />
        </mxCell>
        <mxCell id="ZFSDl9lkwHXLmLVonI5_-17" value="&amp;lt;&amp;lt;include&amp;gt;&amp;gt;" style="html=1;verticalAlign=bottom;endArrow=open;dashed=1;endSize=8;curved=0;rounded=0;entryX=1;entryY=0.5;entryDx=0;entryDy=0;" edge="1" parent="1" target="ZFSDl9lkwHXLmLVonI5_-7">
          <mxGeometry relative="1" as="geometry">
            <mxPoint x="720" y="449" as="sourcePoint" />
            <mxPoint x="640" y="449" as="targetPoint" />
          </mxGeometry>
        </mxCell>
        <mxCell id="ZFSDl9lkwHXLmLVonI5_-18" value="&amp;lt;&amp;lt;include&amp;gt;&amp;gt;" style="html=1;verticalAlign=bottom;endArrow=open;dashed=1;endSize=8;curved=0;rounded=0;entryX=1;entryY=0.5;entryDx=0;entryDy=0;" edge="1" parent="1" target="ZFSDl9lkwHXLmLVonI5_-6">
          <mxGeometry relative="1" as="geometry">
            <mxPoint x="660" y="484.5" as="sourcePoint" />
            <mxPoint x="580" y="484.5" as="targetPoint" />
          </mxGeometry>
        </mxCell>
        <mxCell id="ZFSDl9lkwHXLmLVonI5_-19" value="&amp;lt;&amp;lt;include&amp;gt;&amp;gt;" style="html=1;verticalAlign=bottom;endArrow=open;dashed=1;endSize=8;curved=0;rounded=0;entryX=1;entryY=0.5;entryDx=0;entryDy=0;" edge="1" parent="1" target="ZFSDl9lkwHXLmLVonI5_-8">
          <mxGeometry relative="1" as="geometry">
            <mxPoint x="730" y="520" as="sourcePoint" />
            <mxPoint x="650" y="520" as="targetPoint" />
          </mxGeometry>
        </mxCell>
        <mxCell id="ZFSDl9lkwHXLmLVonI5_-20" value="" style="endArrow=none;html=1;rounded=0;entryX=0;entryY=0.5;entryDx=0;entryDy=0;" edge="1" parent="1" source="ZFSDl9lkwHXLmLVonI5_-1" target="ZFSDl9lkwHXLmLVonI5_-8">
          <mxGeometry width="50" height="50" relative="1" as="geometry">
            <mxPoint x="120" y="480" as="sourcePoint" />
            <mxPoint x="170" y="430" as="targetPoint" />
          </mxGeometry>
        </mxCell>
        <mxCell id="ZFSDl9lkwHXLmLVonI5_-21" value="" style="endArrow=none;html=1;rounded=0;entryX=0.007;entryY=0.414;entryDx=0;entryDy=0;entryPerimeter=0;" edge="1" parent="1" target="ZFSDl9lkwHXLmLVonI5_-6">
          <mxGeometry width="50" height="50" relative="1" as="geometry">
            <mxPoint x="110" y="380" as="sourcePoint" />
            <mxPoint x="180" y="370" as="targetPoint" />
          </mxGeometry>
        </mxCell>
        <mxCell id="ZFSDl9lkwHXLmLVonI5_-22" value="" style="endArrow=none;html=1;rounded=0;entryX=0;entryY=0.5;entryDx=0;entryDy=0;" edge="1" parent="1" target="ZFSDl9lkwHXLmLVonI5_-7">
          <mxGeometry width="50" height="50" relative="1" as="geometry">
            <mxPoint x="110" y="380" as="sourcePoint" />
            <mxPoint x="170" y="350" as="targetPoint" />
          </mxGeometry>
        </mxCell>
        <mxCell id="ZFSDl9lkwHXLmLVonI5_-23" value="" style="endArrow=none;html=1;rounded=0;entryX=0;entryY=0.5;entryDx=0;entryDy=0;" edge="1" parent="1" target="ZFSDl9lkwHXLmLVonI5_-9">
          <mxGeometry width="50" height="50" relative="1" as="geometry">
            <mxPoint x="110" y="380" as="sourcePoint" />
            <mxPoint x="170" y="335" as="targetPoint" />
          </mxGeometry>
        </mxCell>
        <mxCell id="ZFSDl9lkwHXLmLVonI5_-24" value="" style="endArrow=none;html=1;rounded=0;entryX=0;entryY=0.5;entryDx=0;entryDy=0;exitX=0.867;exitY=0.833;exitDx=0;exitDy=0;exitPerimeter=0;" edge="1" parent="1" source="ZFSDl9lkwHXLmLVonI5_-1" target="ZFSDl9lkwHXLmLVonI5_-5">
          <mxGeometry width="50" height="50" relative="1" as="geometry">
            <mxPoint x="110" y="360" as="sourcePoint" />
            <mxPoint x="160" y="310" as="targetPoint" />
          </mxGeometry>
        </mxCell>
        <mxCell id="ZFSDl9lkwHXLmLVonI5_-25" value="Language" style="ellipse;whiteSpace=wrap;html=1;" vertex="1" parent="1">
          <mxGeometry x="660" y="140" width="140" height="70" as="geometry" />
        </mxCell>
        <mxCell id="ZFSDl9lkwHXLmLVonI5_-26" value="&amp;lt;&amp;lt;extended&amp;gt;&amp;gt;" style="html=1;verticalAlign=bottom;endArrow=open;dashed=1;endSize=8;curved=0;rounded=0;" edge="1" parent="1" target="ZFSDl9lkwHXLmLVonI5_-5">
          <mxGeometry relative="1" as="geometry">
            <mxPoint x="660" y="174.5" as="sourcePoint" />
            <mxPoint x="580" y="174.5" as="targetPoint" />
          </mxGeometry>
        </mxCell>
        <mxCell id="ZFSDl9lkwHXLmLVonI5_-27" value="" style="endArrow=none;html=1;rounded=0;exitX=1;exitY=0.5;exitDx=0;exitDy=0;entryX=0;entryY=0.3333333333333333;entryDx=0;entryDy=0;entryPerimeter=0;" edge="1" parent="1" source="ZFSDl9lkwHXLmLVonI5_-25" target="ZFSDl9lkwHXLmLVonI5_-12">
          <mxGeometry width="50" height="50" relative="1" as="geometry">
            <mxPoint x="860" y="370" as="sourcePoint" />
            <mxPoint x="910" y="320" as="targetPoint" />
          </mxGeometry>
        </mxCell>
        <mxCell id="ZFSDl9lkwHXLmLVonI5_-28" value="" style="endArrow=none;html=1;rounded=0;exitX=1;exitY=0.5;exitDx=0;exitDy=0;entryX=0;entryY=1;entryDx=0;entryDy=0;entryPerimeter=0;" edge="1" parent="1" source="ZFSDl9lkwHXLmLVonI5_-11" target="ZFSDl9lkwHXLmLVonI5_-12">
          <mxGeometry width="50" height="50" relative="1" as="geometry">
            <mxPoint x="850" y="430" as="sourcePoint" />
            <mxPoint x="900" y="380" as="targetPoint" />
          </mxGeometry>
        </mxCell>
        <mxCell id="ZFSDl9lkwHXLmLVonI5_-29" value="" style="swimlane;startSize=0;" vertex="1" parent="1">
          <mxGeometry x="190" y="80" width="660" height="610" as="geometry" />
        </mxCell>
        <mxCell id="ZFSDl9lkwHXLmLVonI5_-31" value="Book My Show" style="text;html=1;align=center;verticalAlign=middle;whiteSpace=wrap;rounded=0;" vertex="1" parent="ZFSDl9lkwHXLmLVonI5_-29">
          <mxGeometry x="520" y="570" width="90" height="30" as="geometry" />
        </mxCell>
        <mxCell id="ZFSDl9lkwHXLmLVonI5_-32" value="User" style="text;html=1;align=center;verticalAlign=middle;whiteSpace=wrap;rounded=0;" vertex="1" parent="1">
          <mxGeometry x="65" y="410" width="60" height="30" as="geometry" />
        </mxCell>
        <mxCell id="ZFSDl9lkwHXLmLVonI5_-33" value="Admin" style="text;html=1;align=center;verticalAlign=middle;whiteSpace=wrap;rounded=0;" vertex="1" parent="1">
          <mxGeometry x="915" y="410" width="60" height="30" as="geometry" />
        </mxCell>
      </root>
    </mxGraphModel>
  </diagram>
</mxfile>
